<svg width="24" height="25" viewBox="0 0 24 25" fill="none" xmlns="http://www.w3.org/2000/svg">
<g clip-path="url(#clip0_34_1931)">
<path d="M12 21.1358L16.95 16.13C17.9289 15.1399 18.5955 13.8786 18.8656 12.5054C19.1356 11.1323 18.9969 9.70895 18.4671 8.41548C17.9373 7.12201 17.04 6.01648 15.8889 5.23866C14.7378 4.46085 13.3844 4.04569 12 4.04569C10.6156 4.04569 9.26222 4.46085 8.11109 5.23866C6.95996 6.01648 6.06275 7.12201 5.53292 8.41548C5.00308 9.70895 4.86442 11.1323 5.13445 12.5054C5.40449 13.8786 6.07111 15.1399 7.05 16.13L12 21.1358ZM12 23.9957L5.636 17.5599C4.37734 16.287 3.52019 14.6653 3.17293 12.8998C2.82567 11.1343 3.00391 9.30427 3.6851 7.64119C4.36629 5.97811 5.51984 4.55666 6.99988 3.55658C8.47992 2.5565 10.22 2.02271 12 2.02271C13.78 2.02271 15.5201 2.5565 17.0001 3.55658C18.4802 4.55666 19.6337 5.97811 20.3149 7.64119C20.9961 9.30427 21.1743 11.1343 20.8271 12.8998C20.4798 14.6653 19.6227 16.287 18.364 17.5599L12 23.9957ZM12 13.1467C12.5304 13.1467 13.0391 12.9336 13.4142 12.5543C13.7893 12.175 14 11.6605 14 11.1241C14 10.5877 13.7893 10.0733 13.4142 9.69397C13.0391 9.31467 12.5304 9.10158 12 9.10158C11.4696 9.10158 10.9609 9.31467 10.5858 9.69397C10.2107 10.0733 10 10.5877 10 11.1241C10 11.6605 10.2107 12.175 10.5858 12.5543C10.9609 12.9336 11.4696 13.1467 12 13.1467ZM12 15.1692C10.9391 15.1692 9.92172 14.7431 9.17158 13.9845C8.42143 13.2259 8 12.197 8 11.1241C8 10.0513 8.42143 9.02241 9.17158 8.26381C9.92172 7.5052 10.9391 7.07902 12 7.07902C13.0609 7.07902 14.0783 7.5052 14.8284 8.26381C15.5786 9.02241 16 10.0513 16 11.1241C16 12.197 15.5786 13.2259 14.8284 13.9845C14.0783 14.7431 13.0609 15.1692 12 15.1692Z" fill="#C1C1C1"/>
</g>
<defs>
<clipPath id="clip0_34_1931">
<rect width="24" height="24.2707" fill="white"/>
</clipPath>
</defs>
</svg>
